REM DIRINDEX 1\4,1\2\5,1\2\6,1\2\7,1\3\8,1\3\9,1\3\10,1\3\11
REM DIRNAME folder01,folder02,folder03,folder04,folder05,folder06,folder07,folder08,folder09,folder10,folder11
TITLE ""
FILE "t_k_033-044.mp3" MP3
  TRACK 01 AUDIO
    TITLE "5:cjc108_0098"
    INDEX 01 00:00:00
  TRACK 02 AUDIO
    TITLE "0:"
    INDEX 01 00:00:72
  TRACK 03 AUDIO
    TITLE "6:cjc108_0099"
    INDEX 01 00:01:09
  TRACK 04 AUDIO
    TITLE "0:"
    INDEX 01 00:03:27
  TRACK 05 AUDIO
    TITLE "7:cjc108_0100"
    INDEX 01 00:03:37
  TRACK 06 AUDIO
    TITLE "0:"
    INDEX 01 00:06:41
  TRACK 07 AUDIO
    TITLE "5:cjc108_0101"
    INDEX 01 00:07:23
  TRACK 08 AUDIO
    TITLE "0:"
    INDEX 01 00:08:21
  TRACK 09 AUDIO
    TITLE "6:cjc108_0102"
    INDEX 01 00:08:32
  TRACK 10 AUDIO
    TITLE "0:"
    INDEX 01 00:10:63
  TRACK 11 AUDIO
    TITLE "7:cjc108_0103"
    INDEX 01 00:11:01
  TRACK 12 AUDIO
    TITLE "0:"
    INDEX 01 00:16:59
  TRACK 13 AUDIO
    TITLE "5:cjc108_0104"
    INDEX 01 00:17:27
  TRACK 14 AUDIO
    TITLE "0:"
    INDEX 01 00:18:29
  TRACK 15 AUDIO
    TITLE "6:cjc108_0105"
    INDEX 01 00:18:44
  TRACK 16 AUDIO
    TITLE "0:"
    INDEX 01 00:19:30
  TRACK 17 AUDIO
    TITLE "7:cjc108_0106"
    INDEX 01 00:19:40
  TRACK 18 AUDIO
    TITLE "0:"
    INDEX 01 00:23:69
  TRACK 19 AUDIO
    TITLE "5:cjc108_0107"
    INDEX 01 00:24:43
  TRACK 20 AUDIO
    TITLE "0:"
    INDEX 01 00:25:41
  TRACK 21 AUDIO
    TITLE "6:cjc108_0108"
    INDEX 01 00:25:58
  TRACK 22 AUDIO
    TITLE "0:"
    INDEX 01 00:27:43
  TRACK 23 AUDIO
    TITLE "7:cjc108_0109"
    INDEX 01 00:27:57
  TRACK 24 AUDIO
    TITLE "0:"
    INDEX 01 00:31:69
  TRACK 25 AUDIO
    TITLE "5:cjc108_0110"
    INDEX 01 00:32:52
  TRACK 26 AUDIO
    TITLE "0:"
    INDEX 01 00:34:02
  TRACK 27 AUDIO
    TITLE "6:cjc108_0111"
    INDEX 01 00:34:04
  TRACK 28 AUDIO
    TITLE "0:"
    INDEX 01 00:36:66
  TRACK 29 AUDIO
    TITLE "7:cjc108_0112"
    INDEX 01 00:37:05
  TRACK 30 AUDIO
    TITLE "0:"
    INDEX 01 00:41:55
  TRACK 31 AUDIO
    TITLE "5:cjc108_0113"
    INDEX 01 00:42:47
  TRACK 32 AUDIO
    TITLE "0:"
    INDEX 01 00:43:52
  TRACK 33 AUDIO
    TITLE "6:cjc108_0114"
    INDEX 01 00:43:74
  TRACK 34 AUDIO
    TITLE "0:"
    INDEX 01 00:45:33
  TRACK 35 AUDIO
    TITLE "7:cjc108_0115"
    INDEX 01 00:45:41
  TRACK 36 AUDIO
    TITLE "0:"
    INDEX 01 00:49:41
  TRACK 37 AUDIO
    TITLE "5:cjc108_0116"
    INDEX 01 00:50:29
  TRACK 38 AUDIO
    TITLE "0:"
    INDEX 01 00:51:48
  TRACK 39 AUDIO
    TITLE "6:cjc108_0117"
    INDEX 01 00:51:60
  TRACK 40 AUDIO
    TITLE "0:"
    INDEX 01 00:53:17
  TRACK 41 AUDIO
    TITLE "7:cjc108_0118"
    INDEX 01 00:53:25
  TRACK 42 AUDIO
    TITLE "0:"
    INDEX 01 00:57:56
  TRACK 43 AUDIO
    TITLE "5:cjc108_0119"
    INDEX 01 00:58:30
  TRACK 44 AUDIO
    TITLE "0:"
    INDEX 01 00:59:45
  TRACK 45 AUDIO
    TITLE "6:cjc108_0120"
    INDEX 01 00:59:51
  TRACK 46 AUDIO
    TITLE "0:"
    INDEX 01 01:01:46
  TRACK 47 AUDIO
    TITLE "7:cjc108_0121"
    INDEX 01 01:01:60
  TRACK 48 AUDIO
    TITLE "0:"
    INDEX 01 01:08:21
  TRACK 49 AUDIO
    TITLE "5:cjc108_0122"
    INDEX 01 01:09:07
  TRACK 50 AUDIO
    TITLE "0:"
    INDEX 01 01:10:08
  TRACK 51 AUDIO
    TITLE "6:cjc108_0123"
    INDEX 01 01:10:20
  TRACK 52 AUDIO
    TITLE "0:"
    INDEX 01 01:11:51
  TRACK 53 AUDIO
    TITLE "7:cjc108_0124"
    INDEX 01 01:11:58
  TRACK 54 AUDIO
    TITLE "0:"
    INDEX 01 01:16:42
  TRACK 55 AUDIO
    TITLE "5:cjc108_0125"
    INDEX 01 01:17:20
  TRACK 56 AUDIO
    TITLE "0:"
    INDEX 01 01:18:35
  TRACK 57 AUDIO
    TITLE "6:cjc108_0126"
    INDEX 01 01:18:53
  TRACK 58 AUDIO
    TITLE "0:"
    INDEX 01 01:20:12
  TRACK 59 AUDIO
    TITLE "7:cjc108_0127"
    INDEX 01 01:20:22
  TRACK 60 AUDIO
    TITLE "0:"
    INDEX 01 01:26:38
  TRACK 61 AUDIO
    TITLE "5:cjc108_0128"
    INDEX 01 01:27:12
  TRACK 62 AUDIO
    TITLE "0:"
    INDEX 01 01:28:37
  TRACK 63 AUDIO
    TITLE "6:cjc108_0129"
    INDEX 01 01:28:43
  TRACK 64 AUDIO
    TITLE "0:"
    INDEX 01 01:29:66
  TRACK 65 AUDIO
    TITLE "7:cjc108_0130"
    INDEX 01 01:30:03
  TRACK 66 AUDIO
    TITLE "0:"
    INDEX 01 01:38:08
  TRACK 67 AUDIO
    TITLE "5:cjc108_0131"
    INDEX 01 01:38:63
  TRACK 68 AUDIO
    TITLE "0:"
    INDEX 01 01:39:64
  TRACK 69 AUDIO
    TITLE "6:cjc108_0132"
    INDEX 01 01:40:01
  TRACK 70 AUDIO
    TITLE "0:"
    INDEX 01 01:42:35
  TRACK 71 AUDIO
    TITLE "7:cjc108_0133"
    INDEX 01 01:42:45
  TRACK 72 AUDIO
    TITLE "0:"
    INDEX 01 01:48:48
